# xmcd
#
# Track frame offsets:
#	150
#	21857
#	40135
#	57192
#	76508
#	93943
#	111246
#	129737
#	144367
#	166074
#	184352
#	201409
#	220725
#	238160
#	255463
#	273954
#
# Disc length: 3845 seconds
#
# Revision: 1
# Processed by: cddbd v1.5.2PL0 Copyright (c) Steve Scherf et al.
# Submitted via: audiograbber 1.83.01
#
DISCID=da0f0310
DTITLE=Compulation - CB60397M
DYEAR=2009
DGENRE=Country
TTITLE0=Little Big Town - Good Lord Willing
TTITLE1=Urban, Keith - Sweet Thing
TTITLE2=Gregory, Adam - What It Takes
TTITLE3=Andrews, Jessica - Everything
TTITLE4=Aldean, Jason - She's Country
TTITLE5=Otto, James - These Are The Good Ole Days
TTITLE6=Swift, Taylor - White Horse
TTITLE7=Chesney, Kenny and Mac McAnally - Down The Road
TTITLE8=Little Big Town - Good Lord Willing
TTITLE9=Urban, Keith - Sweet Thing
TTITLE10=Gregory, Adam - What It Takes
TTITLE11=Andrews, Jessica - Everything
TTITLE12=Aldean, Jason - She's Country
TTITLE13=Otto, James - These Are The Good Ole Days
TTITLE14=Swift, Taylor - White Horse
TTITLE15=Chesney, Kenny and Mac McAnally - Down The Road
EXTD=
EXTT0=
EXTT1=
EXTT2=
EXTT3=
EXTT4=
EXTT5=
EXTT6=
EXTT7=
EXTT8=
EXTT9=
EXTT10=
EXTT11=
EXTT12=
EXTT13=
EXTT14=
EXTT15=
PLAYORDER=
